PathFileType  4	(X/Y/Z) C:\Users\antoi\Documents\MyRepositories\mobilecap\ResultsAnalysis
DataRate	CameraRate	NumFrames	NumMarkers	Units	OrigDataRate	OrigDataStartFrame	OrigNumFrames
100.0	100.0	4	51	mm	100.0	82	216
Frame#	Time	r_knee			r_shank_antsup			r_ankle			r_calc			r_5meta			r_toe			L_knee			L_shank_antsup			L_ankle			L_calc			L_5meta			L_toe			r_sh2			r_sh3			r_sh4			L_sh2			L_sh3			r_thigh1			r_thigh2			r_thigh3			r_thigh4			r_thigh5			L_thigh1			L_thigh2			L_thigh3			L_thigh4			r.ASIS			r.PSIS			L.ASIS			L.PSIS			C7			R_Shoulder			L_Shoulder			R_Sternum			L_Sternum			R_humerus			R_elbow_med			R_elbow_lat			R_forearm			R_wrist_radius			R_wrist_ulna			L_humerus			L_elbow_med			L_elbow_lat			L_forearm			L_wrist_radius			L_wrist_ulna			R_HJC			L_HJC			R_HJC_reg			L_HJC_reg			
		X1	Y1	Z1	X2	Y2	Z2	X3	Y3	Z3	X4	Y4	Z4	X5	Y5	Z5	X6	Y6	Z6	X7	Y7	Z7	X8	Y8	Z8	X9	Y9	Z9	X10	Y10	Z10	X11	Y11	Z11	X12	Y12	Z12	X13	Y13	Z13	X14	Y14	Z14	X15	Y15	Z15	X16	Y16	Z16	X17	Y17	Z17	X18	Y18	Z18	X19	Y19	Z19	X20	Y20	Z20	X21	Y21	Z21	X22	Y22	Z22	X23	Y23	Z23	X24	Y24	Z24	X25	Y25	Z25	X26	Y26	Z26	X27	Y27	Z27	X28	Y28	Z28	X29	Y29	Z29	X30	Y30	Z30	X31	Y31	Z31	X32	Y32	Z32	X33	Y33	Z33	X34	Y34	Z34	X35	Y35	Z35	X36	Y36	Z36	X37	Y37	Z37	X38	Y38	Z38	X39	Y39	Z39	X40	Y40	Z40	X41	Y41	Z41	X42	Y42	Z42	X43	Y43	Z43	X44	Y44	Z44	X45	Y45	Z45	X46	Y46	Z46	X47	Y47	Z47	X48	Y48	Z48	X49	Y49	Z49	X50	Y50	Z50	X51	Y51	Z51	

82	0.81000000	-631.61946	842.71135	-365.51233	-622.67061	760.41324	-379.26734	-884.14249	548.14360	-445.54914	-949.19513	563.29972	-499.56827	-848.10805	436.18838	-408.28500	-781.83263	430.62944	-447.25432	-510.57461	909.16377	-786.06843	-469.66590	821.54839	-801.12247	-554.56597	518.80986	-804.81615	-622.47075	511.69329	-753.80270	-485.53966	415.59365	-848.96196	-433.63073	421.94808	-799.74697	-714.42475	689.95693	-378.31925	-678.04618	819.14073	-364.56093	-763.51353	746.69344	-380.46504	-557.83391	837.17875	-798.78572	-567.80064	716.60295	-816.63077	-682.63725	1158.67541	-374.06899	-649.32813	1053.43056	-359.41934	-698.94814	1013.20561	-345.07492	-788.57964	1120.06068	-386.71988	-747.35119	1011.30248	-373.42909	-647.71539	1145.96002	-795.03295	-556.08619	1041.61784	-791.83173	-728.88765	1071.93692	-752.07259	-632.68148	969.56179	-763.92986	-666.96221	1296.66612	-443.60103	-837.23145	1362.25567	-532.02839	-644.91741	1293.92241	-687.51121	-836.14510	1370.40851	-628.68152	-624.38728	1749.14314	-578.67668	-562.19896	1693.46212	-413.53322	-555.49811	1684.05895	-743.21237	-512.41662	1641.71946	-543.33979	-510.04134	1640.17745	-590.23816	-559.20778	1605.30855	-312.92903	-574.40911	1384.05145	-272.15216	-557.81247	1431.64627	-209.77631	-425.40822	1456.22665	-251.74225	-309.50316	1469.00736	-299.15908	-291.42813	1445.54024	-279.45722	-568.47476	1588.96212	-819.31853	-706.39813	1387.37109	-834.32551	-656.05595	1411.20219	-897.31987	-578.68634	1338.11300	-846.38702	-498.20177	1222.23444	-798.91701	-498.74286	1209.07745	-830.72004	-750.18694	1228.59506	-472.04596	-734.18509	1232.75116	-677.85431	-737.60890	1226.39585	-483.84413	-735.79789	1239.98235	-644.90944	
83	0.82000000	-611.38038	846.32451	-361.47146	-598.71948	763.56386	-375.34703	-853.39324	541.58807	-440.37816	-919.67800	553.87342	-493.92140	-812.53705	430.84100	-403.94330	-746.11454	429.02826	-442.68557	-502.04522	907.22126	-788.47969	-458.91395	820.80655	-803.80349	-532.06306	514.45972	-809.40304	-599.23122	505.61831	-758.45841	-460.79756	412.35355	-853.87381	-408.67500	420.01558	-805.14774	-687.18299	689.24091	-372.84221	-656.17372	819.52725	-358.69257	-738.90635	743.95885	-374.08179	-547.60815	832.98354	-801.42166	-552.77307	712.29707	-820.16880	-675.19872	1160.41135	-373.15323	-637.56442	1056.80120	-357.48443	-686.68683	1014.94114	-343.73953	-779.19204	1117.81858	-388.58151	-734.35286	1010.38362	-372.89738	-639.87939	1143.77564	-795.75687	-547.80444	1039.74340	-793.07473	-721.05778	1069.11017	-754.34959	-624.31262	967.31378	-766.48817	-659.68924	1293.38867	-443.31512	-829.65655	1358.92682	-534.21322	-637.05242	1290.80011	-688.22667	-827.63244	1367.62952	-630.85176	-608.06655	1744.26100	-580.55684	-547.49305	1688.39472	-414.43747	-539.35406	1676.97497	-744.43015	-498.09715	1635.37913	-543.43817	-495.56027	1632.69788	-591.04837	-546.92337	1601.67371	-312.52534	-569.99255	1382.26423	-265.68151	-551.41603	1431.28992	-204.90504	-417.98998	1448.66283	-247.69165	-301.77774	1454.75667	-295.00523	-284.81911	1430.88762	-274.90796	-553.49050	1580.82246	-819.70376	-695.15137	1382.16416	-835.28648	-643.67078	1405.35857	-897.88666	-567.54885	1332.43198	-845.75385	-487.65598	1217.00745	-797.27808	-487.97624	1203.71235	-828.98717	-743.21795	1225.48388	-473.26491	-725.79203	1229.59838	-678.95551	-730.60322	1222.03123	-484.95564	-727.21522	1236.58952	-646.60706	
84	0.83000000	-592.28910	848.94711	-357.90671	-575.41420	765.93219	-371.40779	-821.60739	533.26195	-434.47405	-888.95722	541.97970	-488.13336	-775.84827	424.21902	-398.29745	-709.44192	425.90667	-436.93487	-493.68172	904.07204	-790.96646	-448.40006	818.64209	-806.56273	-510.07970	509.38620	-814.30305	-576.08243	498.99692	-762.31365	-436.86668	408.20005	-858.57837	-384.37112	417.32737	-810.51944	-661.49883	687.29805	-368.21060	-635.07673	818.65139	-353.67200	-714.67582	739.57819	-368.17136	-537.54911	827.54814	-804.53163	-537.87351	706.79820	-823.71156	-667.82855	1161.04424	-372.29088	-625.01609	1059.04495	-355.85435	-674.72644	1015.57729	-342.45300	-769.78593	1114.78356	-390.27183	-721.73512	1008.71222	-372.41921	-631.77057	1140.77268	-796.92782	-539.55306	1036.93849	-794.48697	-713.04363	1065.55705	-756.80987	-616.05812	964.16981	-769.28470	-652.15953	1289.27122	-443.24174	-821.85236	1354.64544	-536.22076	-628.21944	1285.45392	-689.00061	-818.92564	1363.66834	-632.89615	-591.72956	1738.41231	-582.04324	-532.47725	1682.31606	-415.35498	-523.47810	1669.08437	-745.51340	-483.78216	1627.72216	-543.76415	-481.50950	1624.67251	-592.20085	-534.64245	1597.58435	-311.88765	-565.04016	1380.59022	-259.25788	-544.73049	1430.75818	-199.73560	-410.56338	1441.25412	-242.69440	-294.58250	1440.82007	-290.14175	-278.54484	1416.74231	-269.56926	-538.80405	1571.93083	-820.02415	-683.83933	1376.40642	-836.76839	-631.26343	1399.02522	-899.01480	-555.85045	1326.58226	-845.89719	-476.39868	1211.77569	-796.53269	-476.35596	1198.49167	-828.20942	-735.98627	1221.47993	-474.07509	-717.20876	1224.70729	-679.66455	-723.10437	1216.45410	-486.02724	-718.19548	1231.59307	-648.23763	
85	0.84000000	-574.33977	850.42298	-354.99131	-553.10418	767.28498	-367.94904	-788.95635	523.31543	-427.98286	-856.88905	528.17733	-482.23805	-738.46136	416.47477	-391.30972	-672.39229	420.86663	-430.33858	-485.47087	899.59622	-793.24790	-438.20271	815.00891	-809.35793	-488.62252	503.44778	-819.13394	-553.29409	491.72997	-765.42074	-413.63555	403.25546	-863.34552	-360.71243	413.99083	-815.98375	-636.05228	684.18457	-364.83621	-614.95240	816.85502	-349.54098	-691.02923	734.14491	-363.13963	-527.63134	820.62799	-807.58783	-523.26471	699.92824	-827.09172	-660.19521	1160.41965	-371.79850	-613.42105	1059.93495	-354.50362	-662.97527	1014.65260	-341.53684	-760.32773	1110.83353	-391.80737	-709.46930	1006.38650	-372.29735	-623.32885	1136.93286	-798.50991	-531.22172	1033.03745	-796.00508	-704.80682	1061.42426	-759.61741	-607.96209	960.10000	-772.09534	-644.46969	1283.99787	-443.73372	-813.72005	1349.47030	-538.05231	-619.29659	1278.51910	-689.88746	-809.94788	1358.58773	-634.67757	-575.51538	1731.60301	-583.25039	-517.27579	1675.18525	-416.40199	-508.06611	1660.36356	-745.97874	-469.61000	1619.03272	-544.33130	-468.23973	1616.26482	-592.63801	-522.36725	1593.09118	-310.98565	-559.58025	1378.95727	-252.47460	-537.72307	1430.11430	-194.27367	-403.29403	1434.26182	-236.97639	-287.69887	1427.57383	-284.87952	-272.52805	1403.57524	-263.54184	-524.46172	1562.51974	-820.37520	-672.46523	1370.09858	-839.00725	-618.94553	1392.38903	-900.78116	-543.72840	1320.61495	-846.74452	-464.49204	1206.63931	-796.66735	-463.97673	1193.42745	-828.34250	-728.59260	1216.40272	-474.84362	-708.82714	1218.49853	-680.35865	-715.57114	1210.07345	-487.35905	-709.22850	1225.40611	-649.86037	
